<mxfile host="app.diagrams.net" modified="2024-06-24T16:33:15.167Z" agent="Mozilla/5.0 (X11; Linux x86_64) AppleWebKit/537.36 (KHTML, like Gecko) Chrome/124.0.0.0 Safari/537.36" version="24.6.2" etag="H78IrVCewnSxxCKoUdqe" type="github">
  <diagram name="Page-1" id="957H-V5OjExUQJYPsR7a">
    <mxGraphModel>
      <root>
        <mxCell id="0" />
        <mxCell id="1" parent="0" />
      </root>
    </mxGraphModel>
  </diagram>
</mxfile>
